<svg width="166" height="168" viewBox="0 0 166 168" fill="none" xmlns="http://www.w3.org/2000/svg">
<path d="M96.8295 105.2C96.1562 91.86 95.9628 78.64 96.2495 65.54" stroke="#D71757" stroke-width="2"/>
<path d="M65.25 110.96L65.24 68.32C65.2411 68.1844 65.192 68.0528 65.1018 67.9498C65.0117 67.8468 64.8867 67.7794 64.75 67.76L63 67.54" stroke="#D71757" stroke-width="2"/>
<path d="M135.51 137.36L133.28 137.24C132.94 137.22 132.77 137.04 132.77 136.7L132.75 107.04" stroke="#079E97" stroke-width="2"/>
<path d="M100.24 137.94L101.31 137.68C101.677 137.593 101.86 137.36 101.86 136.98L101.78 111.75" stroke="#079E97" stroke-width="2"/>
<path d="M55.4998 143.54L55.2998 164.32" stroke="#6BAA1A" stroke-width="2"/>
<path d="M86.7199 143.52C86.2999 151.087 86.3966 158.547 87.0099 165.9" stroke="#6BAA1A" stroke-width="2"/>
<path d="M131.15 11.81C118.93 3.73003 107.75 8.92003 101.03 20.53C100.737 21.0367 100.807 21.09 101.24 20.69C102.7 19.35 103.77 17.32 104.92 16.21C112 9.38003 122.94 7.56003 131.5 13.06C131.556 13.0943 131.621 13.1101 131.686 13.1052C131.751 13.1003 131.813 13.075 131.863 13.0329C131.913 12.9908 131.948 12.934 131.964 12.8706C131.979 12.8073 131.975 12.7406 131.95 12.68C131.823 12.36 131.557 12.07 131.15 11.81Z" stroke="#D71757" stroke-width="2"/>
<path d="M64.5002 19.5001C64.5802 19.4734 64.6635 19.4468 64.7502 19.4201C64.7917 19.4093 64.8283 19.3847 64.8541 19.3504C64.8799 19.3161 64.8933 19.274 64.8921 19.2311C64.8909 19.1882 64.8753 19.147 64.8477 19.1141C64.8201 19.0813 64.7822 19.0587 64.7402 19.0501C59.2135 17.4634 53.8535 17.8101 48.6602 20.0901C46.4535 21.0634 46.5768 21.5301 49.0302 21.4901C50.2702 21.4768 52.1135 21.0968 54.5602 20.3501C56.2602 19.8301 59.2835 19.8134 63.6302 20.3001C63.8235 20.3201 63.9702 20.2501 64.0702 20.0901L64.3402 19.6301C64.3735 19.5701 64.4268 19.5268 64.5002 19.5001Z" stroke="#6BAA1A" stroke-width="2"/>
<path d="M10.9398 53.97C19.8898 46.88 29.0098 49.99 40.1098 52.55C42.0598 53 43.3798 53.74 45.1698 52.17C45.2461 52.1026 45.3021 52.0152 45.3317 51.9178C45.3613 51.8203 45.3633 51.7166 45.3373 51.6181C45.3114 51.5196 45.2587 51.4302 45.1849 51.3599C45.1112 51.2896 45.0194 51.2412 44.9198 51.22C33.7298 48.78 18.7498 43.39 10.1798 54.04C10.1492 54.0764 10.1287 54.1201 10.1204 54.1668C10.1121 54.2136 10.1162 54.2617 10.1325 54.3063C10.1487 54.351 10.1764 54.3905 10.2128 54.421C10.2492 54.4515 10.293 54.4719 10.3398 54.48C10.5864 54.5334 10.7231 54.4767 10.7498 54.31C10.7686 54.1751 10.8365 54.0536 10.9398 53.97Z" stroke="#D71757" stroke-width="2"/>
<path d="M103.69 5.96C114.78 -5.31001 133.71 0.399996 134.67 16.93C134.674 17.0022 134.656 17.074 134.62 17.1363C134.583 17.1987 134.529 17.2489 134.464 17.2808C134.399 17.3127 134.326 17.3249 134.254 17.3159C134.183 17.3069 134.115 17.277 134.06 17.23C127.69 11.77 118.88 8.83999 110.98 13.85C98.8301 21.57 92.6201 40.92 91.1201 54.32C91.1127 54.3723 91.0875 54.4212 91.0489 54.4582C91.0103 54.4952 90.9607 54.518 90.9085 54.5227C90.8564 54.5275 90.8051 54.5138 90.7634 54.4841C90.7217 54.4544 90.6922 54.4105 90.6801 54.36C86.6901 39.4 92.7701 17.05 103.69 5.96ZM131.15 11.81C118.93 3.73 107.75 8.92 101.03 20.53C100.737 21.0367 100.807 21.09 101.24 20.69C102.7 19.35 103.77 17.32 104.92 16.21C112 9.38 122.94 7.56 131.5 13.06C131.556 13.0942 131.621 13.11 131.686 13.1052C131.751 13.1003 131.813 13.075 131.863 13.0329C131.912 12.9907 131.948 12.934 131.964 12.8706C131.979 12.8072 131.975 12.7405 131.95 12.68C131.823 12.36 131.557 12.07 131.15 11.81Z" fill="#E2185B"/>
<path d="M131.15 11.81C131.557 12.07 131.823 12.36 131.95 12.68C131.975 12.7406 131.979 12.8073 131.964 12.8706C131.948 12.934 131.913 12.9908 131.863 13.0329C131.813 13.075 131.751 13.1003 131.686 13.1052C131.621 13.1101 131.556 13.0943 131.5 13.06C122.94 7.56003 112 9.38003 104.92 16.21C103.77 17.32 102.7 19.35 101.24 20.69C100.807 21.09 100.737 21.0367 101.03 20.53C107.75 8.92003 118.93 3.73003 131.15 11.81Z" fill="#CB1652"/>
<path d="M72.0604 20.6899C80.0071 27.9299 85.3271 36.6866 88.0204 46.9599C88.0337 47.0255 88.023 47.0937 87.9903 47.1522C87.9575 47.2106 87.905 47.2553 87.8421 47.2783C87.7792 47.3013 87.7101 47.301 87.6475 47.2774C87.5848 47.2538 87.5326 47.2086 87.5004 47.1499C79.1804 30.4999 64.7804 13.5299 44.3904 25.9599C44.3172 26.0036 44.2334 26.0265 44.1481 26.0262C44.0628 26.0259 43.9792 26.0024 43.9062 25.9582C43.8333 25.914 43.7737 25.8508 43.7339 25.7754C43.6941 25.6999 43.6756 25.6151 43.6804 25.5299C43.8204 23.4566 44.5171 21.2932 45.7704 19.0399C52.5004 6.89989 64.9904 14.2399 72.0604 20.6899ZM64.5004 19.4999C64.5804 19.4732 64.6638 19.4466 64.7504 19.4199C64.792 19.409 64.8286 19.3845 64.8544 19.3502C64.8801 19.3158 64.8935 19.2738 64.8924 19.2309C64.8912 19.188 64.8756 19.1468 64.848 19.1139C64.8204 19.081 64.7825 19.0585 64.7404 19.0499C59.2138 17.4632 53.8538 17.8099 48.6604 20.0899C46.4538 21.0632 46.5771 21.5299 49.0304 21.4899C50.2704 21.4766 52.1138 21.0966 54.5604 20.3499C56.2604 19.8299 59.2838 19.8132 63.6304 20.2999C63.8238 20.3199 63.9704 20.2499 64.0704 20.0899L64.3404 19.6299C64.3738 19.5699 64.4271 19.5266 64.5004 19.4999Z" fill="#71B31B"/>
<path d="M124.91 16.2299C148.8 25.0099 107.26 51.0999 99.1597 54.1299C99.1228 54.1404 99.0834 54.138 99.0479 54.1232C99.0125 54.1085 98.9831 54.0821 98.9645 54.0485C98.946 54.0148 98.9393 53.9759 98.9457 53.938C98.9521 53.9002 98.9712 53.8656 98.9997 53.8399C109.01 46.5499 123.14 33.8799 125.37 21.6999C125.72 19.7999 125.09 18.3899 124.52 16.5999C124.4 16.2132 124.53 16.0899 124.91 16.2299Z" fill="#71B31B"/>
<path d="M64.3402 19.6301L64.0702 20.0901C63.9702 20.2501 63.8235 20.3201 63.6302 20.3001C59.2835 19.8134 56.2602 19.8301 54.5602 20.3501C52.1135 21.0968 50.2702 21.4768 49.0302 21.4901C46.5768 21.5301 46.4535 21.0634 48.6602 20.0901C53.8535 17.8101 59.2135 17.4634 64.7402 19.0501C64.7822 19.0587 64.8201 19.0813 64.8477 19.1141C64.8753 19.147 64.8909 19.1882 64.8921 19.2311C64.8933 19.274 64.8799 19.3161 64.8541 19.3504C64.8283 19.3847 64.7917 19.4093 64.7502 19.4201C64.6635 19.4468 64.5802 19.4734 64.5002 19.5001C64.4268 19.5268 64.3735 19.5701 64.3402 19.6301Z" fill="#65A118"/>
<path d="M82.6001 54.87C82.8501 54.95 83.2901 54.94 83.4801 55.18C83.5056 55.2143 83.5206 55.2553 83.5232 55.298C83.5257 55.3407 83.5158 55.3832 83.4946 55.4204C83.4733 55.4575 83.4417 55.4877 83.4037 55.5071C83.3656 55.5266 83.3226 55.5345 83.2801 55.53C69.7701 53.98 55.7701 50.75 47.2901 39.25C41.9001 31.95 46.8701 26.36 54.2501 24.64C54.6501 24.5466 54.7534 24.6833 54.5601 25.05C46.6901 39.49 72.8701 51.69 82.6001 54.87Z" fill="#07A69F"/>
<path d="M155.2 45.68C158.68 46.04 161.99 45.5034 165.13 44.07C165.197 44.0373 165.274 44.0293 165.347 44.0476C165.42 44.0659 165.484 44.1093 165.528 44.1701C165.572 44.2309 165.594 44.3053 165.588 44.3803C165.583 44.4552 165.552 44.5259 165.5 44.58C160.58 50.05 154.46 51.73 147.24 51.51C135.36 51.14 122 48.61 110.92 51.05C105.72 52.19 105.586 51.7534 110.52 49.74C122.11 45.01 137.37 44.75 147.93 41.42C152.043 40.12 155.38 38.11 157.94 35.39C158.56 34.73 158.82 34.85 158.72 35.75C158.34 39.2567 157.086 42.3767 154.96 45.11C154.693 45.4434 154.773 45.6334 155.2 45.68Z" fill="#07A69F"/>
<path d="M11.0296 46.5801C7.1829 46.6401 3.9329 48.0001 1.27957 50.6601C1.2397 50.703 1.18653 50.7312 1.12865 50.7401C1.07077 50.749 1.01158 50.7381 0.960665 50.7092C0.909749 50.6802 0.870086 50.635 0.848108 50.5807C0.82613 50.5264 0.823118 50.4663 0.839563 50.4101C2.63956 44.0168 6.88624 40.4068 13.5796 39.5801C30.1196 37.5501 43.5996 48.8001 60.0096 53.9401C64.3696 55.3134 68.7962 56.4001 73.2896 57.2001C73.3433 57.2143 73.3905 57.2467 73.423 57.2918C73.4555 57.3369 73.4713 57.3919 73.4678 57.4474C73.4643 57.5029 73.4416 57.5555 73.4036 57.5961C73.3656 57.6367 73.3147 57.6628 73.2596 57.6701C62.9129 58.1101 52.7196 57.1634 42.6796 54.8301C29.7296 51.8101 17.3196 46.8501 9.09957 58.9601C8.8929 59.2668 8.75624 59.2368 8.68957 58.8701C7.82957 54.1301 9.59957 50.9501 11.3496 47.0601C11.4962 46.7334 11.3896 46.5734 11.0296 46.5801ZM10.9396 53.9701C19.8896 46.8801 29.0096 49.9901 40.1096 52.5501C42.0596 53.0001 43.3796 53.7401 45.1696 52.1701C45.2459 52.1026 45.3019 52.0153 45.3315 51.9178C45.3611 51.8204 45.363 51.7166 45.3371 51.6181C45.3112 51.5196 45.2584 51.4302 45.1847 51.36C45.111 51.2897 45.0192 51.2413 44.9196 51.2201C33.7296 48.7801 18.7496 43.3901 10.1796 54.0401C10.149 54.0764 10.1285 54.1201 10.1202 54.1669C10.1119 54.2136 10.116 54.2618 10.1323 54.3064C10.1485 54.351 10.1762 54.3906 10.2126 54.4211C10.249 54.4516 10.2928 54.4719 10.3396 54.4801C10.5862 54.5334 10.7229 54.4768 10.7496 54.3101C10.7684 54.1752 10.8363 54.0536 10.9396 53.9701Z" fill="#E2185B"/>
<path d="M10.7498 54.31C10.7231 54.4767 10.5864 54.5334 10.3398 54.48C10.293 54.4719 10.2492 54.4515 10.2128 54.421C10.1764 54.3905 10.1487 54.351 10.1325 54.3063C10.1162 54.2617 10.1121 54.2136 10.1204 54.1668C10.1287 54.1201 10.1492 54.0764 10.1798 54.04C18.7498 43.39 33.7298 48.78 44.9198 51.22C45.0194 51.2412 45.1112 51.2896 45.1849 51.3599C45.2587 51.4302 45.3114 51.5196 45.3373 51.6181C45.3633 51.7166 45.3613 51.8203 45.3317 51.9178C45.3021 52.0152 45.2461 52.1026 45.1698 52.17C43.3798 53.74 42.0598 53 40.1098 52.55C29.0098 49.99 19.8898 46.88 10.9398 53.97C10.8365 54.0536 10.7686 54.1751 10.7498 54.31Z" fill="#CB1652"/>
<path d="M96.8305 105.2C96.1571 91.86 95.9638 78.64 96.2505 65.54L159.37 61.66C159.95 61.6267 160.164 61.89 160.01 62.45L151.26 94.81C151.18 95.1034 150.994 95.2767 150.7 95.33L96.8305 105.2Z" fill="#E2185B"/>
<path d="M96.25 65.54C95.9633 78.64 96.1567 91.86 96.83 105.2L65.25 110.96L65.24 68.32C65.2411 68.1844 65.192 68.0528 65.1018 67.9498C65.0117 67.8468 64.8867 67.7794 64.75 67.76L63 67.54L96.25 65.54Z" fill="#CB1652"/>
<path d="M62.9998 67.54L64.7498 67.76C64.8865 67.7794 65.0115 67.8468 65.1016 67.9498C65.1917 68.0528 65.2408 68.1844 65.2398 68.32L65.2498 110.96L30.2998 117.72C29.9398 117.787 29.7164 117.647 29.6298 117.3L17.6198 70.72C17.5064 70.2934 17.6698 70.0667 18.1098 70.04L62.9998 67.54Z" fill="#E2185B"/>
<path d="M135.51 137.36L133.28 137.24C132.94 137.22 132.77 137.04 132.77 136.7L132.75 107.04L162.89 102.47C163.263 102.417 163.417 102.573 163.35 102.94L157.29 136.54C157.269 136.651 157.211 136.751 157.126 136.823C157.04 136.896 156.932 136.937 156.82 136.94L135.51 137.36Z" fill="#07A69F"/>
<path d="M132.75 107.04L132.77 136.7C132.77 137.04 132.94 137.22 133.28 137.24L135.51 137.36L100.24 137.94L101.31 137.68C101.677 137.593 101.86 137.36 101.86 136.98L101.78 111.75L132.75 107.04Z" fill="#06958F"/>
<path d="M101.78 111.75L101.86 136.98C101.86 137.36 101.677 137.593 101.31 137.68L100.24 137.94L50.3602 138.56C49.6136 138.573 49.1369 138.22 48.9302 137.5L44.1502 120.97C44.0636 120.683 44.1702 120.517 44.4702 120.47L101.78 111.75Z" fill="#07A69F"/>
<path d="M55.5004 143.54L55.3004 164.32L36.0304 163.46C35.869 163.454 35.7142 163.396 35.5896 163.295C35.465 163.194 35.3775 163.055 35.3404 162.9L30.4604 144.26C30.3404 143.787 30.5237 143.55 31.0104 143.55L55.5004 143.54Z" fill="#71B31B"/>
<path d="M55.4998 143.54L86.7198 143.52C86.2998 151.087 86.3965 158.547 87.0098 165.9L55.2998 164.32L55.4998 143.54Z" fill="#65A118"/>
<path d="M86.7199 143.52H135.32C135.647 143.52 135.75 143.673 135.63 143.98L126.26 167.27C126.19 167.445 126.067 167.594 125.909 167.696C125.752 167.799 125.567 167.849 125.38 167.84L87.0099 165.9C86.3966 158.547 86.2999 151.087 86.7199 143.52Z" fill="#71B31B"/>
</svg>
