<svg width="358" height="307" viewBox="0 0 358 307" fill="none" xmlns="http://www.w3.org/2000/svg">
<path d="M191.829 146.2C191.156 132.86 190.963 119.64 191.249 106.54" stroke="#D71757" stroke-width="2"/>
<path d="M160.25 151.96L160.24 109.32C160.241 109.184 160.192 109.053 160.102 108.95C160.012 108.847 159.887 108.779 159.75 108.76L158 108.54" stroke="#D71757" stroke-width="2"/>
<path d="M230.51 178.36L228.28 178.24C227.94 178.22 227.77 178.04 227.77 177.7L227.75 148.04" stroke="#079E97" stroke-width="2"/>
<path d="M195.24 178.94L196.31 178.68C196.677 178.593 196.86 178.36 196.86 177.98L196.78 152.75" stroke="#079E97" stroke-width="2"/>
<path d="M150.5 184.54L150.3 205.32" stroke="#6BAA1A" stroke-width="2"/>
<path d="M181.72 184.52C181.3 192.087 181.397 199.547 182.01 206.9" stroke="#6BAA1A" stroke-width="2"/>
<path d="M226.15 52.81C213.93 44.73 202.75 49.92 196.03 61.53C195.737 62.0367 195.807 62.09 196.24 61.69C197.7 60.35 198.77 58.32 199.92 57.21C207 50.38 217.94 48.56 226.5 54.06C226.556 54.0943 226.621 54.1101 226.686 54.1052C226.751 54.1003 226.813 54.075 226.863 54.0329C226.913 53.9908 226.948 53.934 226.964 53.8706C226.979 53.8073 226.975 53.7406 226.95 53.68C226.823 53.36 226.557 53.07 226.15 52.81Z" stroke="#D71757" stroke-width="2"/>
<path d="M159.5 60.5001C159.58 60.4734 159.664 60.4468 159.75 60.4201C159.792 60.4093 159.828 60.3847 159.854 60.3504C159.88 60.3161 159.893 60.274 159.892 60.2311C159.891 60.1882 159.875 60.147 159.848 60.1141C159.82 60.0813 159.782 60.0587 159.74 60.0501C154.214 58.4634 148.854 58.8101 143.66 61.0901C141.454 62.0634 141.577 62.5301 144.03 62.4901C145.27 62.4768 147.113 62.0968 149.56 61.3501C151.26 60.8301 154.284 60.8134 158.63 61.3001C158.824 61.3201 158.97 61.2501 159.07 61.0901L159.34 60.6301C159.373 60.5701 159.427 60.5268 159.5 60.5001Z" stroke="#6BAA1A" stroke-width="2"/>
<path d="M105.94 94.97C114.89 87.88 124.01 90.99 135.11 93.55C137.06 94 138.38 94.74 140.17 93.17C140.246 93.1026 140.302 93.0152 140.332 92.9178C140.361 92.8203 140.363 92.7166 140.337 92.6181C140.311 92.5196 140.259 92.4302 140.185 92.3599C140.111 92.2896 140.019 92.2412 139.92 92.22C128.73 89.78 113.75 84.39 105.18 95.04C105.149 95.0764 105.129 95.1201 105.12 95.1668C105.112 95.2136 105.116 95.2617 105.132 95.3063C105.149 95.351 105.176 95.3905 105.213 95.421C105.249 95.4515 105.293 95.4719 105.34 95.48C105.586 95.5334 105.723 95.4767 105.75 95.31C105.769 95.1751 105.837 95.0536 105.94 94.97Z" stroke="#D71757" stroke-width="2"/>
<path d="M198.69 46.96C209.78 35.69 228.71 41.4 229.67 57.93C229.674 58.0022 229.656 58.074 229.62 58.1363C229.583 58.1987 229.529 58.2489 229.464 58.2808C229.399 58.3127 229.326 58.3249 229.254 58.3159C229.183 58.3069 229.115 58.277 229.06 58.23C222.69 52.77 213.88 49.84 205.98 54.85C193.83 62.57 187.62 81.92 186.12 95.32C186.113 95.3723 186.088 95.4212 186.049 95.4582C186.01 95.4952 185.961 95.518 185.909 95.5227C185.856 95.5275 185.805 95.5138 185.763 95.4841C185.722 95.4544 185.692 95.4105 185.68 95.36C181.69 80.4 187.77 58.05 198.69 46.96ZM226.15 52.81C213.93 44.73 202.75 49.92 196.03 61.53C195.737 62.0367 195.807 62.09 196.24 61.69C197.7 60.35 198.77 58.32 199.92 57.21C207 50.38 217.94 48.56 226.5 54.06C226.556 54.0942 226.621 54.11 226.686 54.1052C226.751 54.1003 226.813 54.075 226.863 54.0329C226.912 53.9907 226.948 53.934 226.964 53.8706C226.979 53.8072 226.975 53.7405 226.95 53.68C226.823 53.36 226.557 53.07 226.15 52.81Z" fill="#E2185B"/>
<path d="M226.15 52.81C226.557 53.07 226.823 53.36 226.95 53.68C226.975 53.7406 226.979 53.8073 226.964 53.8706C226.948 53.934 226.913 53.9908 226.863 54.0329C226.813 54.075 226.751 54.1003 226.686 54.1052C226.621 54.1101 226.556 54.0943 226.5 54.06C217.94 48.56 207 50.38 199.92 57.21C198.77 58.32 197.7 60.35 196.24 61.69C195.807 62.09 195.737 62.0367 196.03 61.53C202.75 49.92 213.93 44.73 226.15 52.81Z" fill="#CB1652"/>
<path d="M167.06 61.6899C175.007 68.9299 180.327 77.6866 183.02 87.9599C183.034 88.0255 183.023 88.0937 182.99 88.1522C182.958 88.2106 182.905 88.2553 182.842 88.2783C182.779 88.3013 182.71 88.301 182.647 88.2774C182.585 88.2538 182.533 88.2086 182.5 88.1499C174.18 71.4999 159.78 54.5299 139.39 66.9599C139.317 67.0036 139.233 67.0265 139.148 67.0262C139.063 67.0259 138.979 67.0024 138.906 66.9582C138.833 66.914 138.774 66.8508 138.734 66.7754C138.694 66.6999 138.676 66.6151 138.68 66.5299C138.82 64.4566 139.517 62.2932 140.77 60.0399C147.5 47.8999 159.99 55.2399 167.06 61.6899ZM159.5 60.4999C159.58 60.4732 159.664 60.4466 159.75 60.4199C159.792 60.409 159.829 60.3845 159.854 60.3502C159.88 60.3158 159.894 60.2738 159.892 60.2309C159.891 60.188 159.876 60.1468 159.848 60.1139C159.82 60.081 159.782 60.0585 159.74 60.0499C154.214 58.4632 148.854 58.8099 143.66 61.0899C141.454 62.0632 141.577 62.5299 144.03 62.4899C145.27 62.4766 147.114 62.0966 149.56 61.3499C151.26 60.8299 154.284 60.8132 158.63 61.2999C158.824 61.3199 158.97 61.2499 159.07 61.0899L159.34 60.6299C159.374 60.5699 159.427 60.5266 159.5 60.4999Z" fill="#71B31B"/>
<path d="M219.91 57.2299C243.8 66.0099 202.26 92.0999 194.16 95.1299C194.123 95.1404 194.083 95.138 194.048 95.1232C194.012 95.1085 193.983 95.0821 193.965 95.0485C193.946 95.0148 193.939 94.9759 193.946 94.938C193.952 94.9002 193.971 94.8656 194 94.8399C204.01 87.5499 218.14 74.8799 220.37 62.6999C220.72 60.7999 220.09 59.3899 219.52 57.5999C219.4 57.2132 219.53 57.0899 219.91 57.2299Z" fill="#71B31B"/>
<path d="M159.34 60.6301L159.07 61.0901C158.97 61.2501 158.824 61.3201 158.63 61.3001C154.284 60.8134 151.26 60.8301 149.56 61.3501C147.113 62.0968 145.27 62.4768 144.03 62.4901C141.577 62.5301 141.454 62.0634 143.66 61.0901C148.854 58.8101 154.214 58.4634 159.74 60.0501C159.782 60.0587 159.82 60.0813 159.848 60.1141C159.875 60.147 159.891 60.1882 159.892 60.2311C159.893 60.274 159.88 60.3161 159.854 60.3504C159.828 60.3847 159.792 60.4093 159.75 60.4201C159.664 60.4468 159.58 60.4734 159.5 60.5001C159.427 60.5268 159.373 60.5701 159.34 60.6301Z" fill="#65A118"/>
<path d="M177.6 95.87C177.85 95.95 178.29 95.94 178.48 96.18C178.506 96.2143 178.521 96.2553 178.523 96.298C178.526 96.3407 178.516 96.3832 178.495 96.4204C178.473 96.4575 178.442 96.4877 178.404 96.5071C178.366 96.5266 178.323 96.5345 178.28 96.53C164.77 94.98 150.77 91.75 142.29 80.25C136.9 72.95 141.87 67.36 149.25 65.64C149.65 65.5466 149.753 65.6833 149.56 66.05C141.69 80.49 167.87 92.69 177.6 95.87Z" fill="#07A69F"/>
<path d="M250.2 86.68C253.68 87.04 256.99 86.5034 260.13 85.07C260.197 85.0373 260.274 85.0293 260.347 85.0476C260.42 85.0659 260.484 85.1093 260.528 85.1701C260.572 85.2309 260.594 85.3053 260.588 85.3803C260.583 85.4552 260.552 85.5259 260.5 85.58C255.58 91.05 249.46 92.73 242.24 92.51C230.36 92.14 217 89.61 205.92 92.05C200.72 93.19 200.586 92.7534 205.52 90.74C217.11 86.01 232.37 85.75 242.93 82.42C247.043 81.12 250.38 79.11 252.94 76.39C253.56 75.73 253.82 75.85 253.72 76.75C253.34 80.2567 252.086 83.3767 249.96 86.11C249.693 86.4434 249.773 86.6334 250.2 86.68Z" fill="#07A69F"/>
<path d="M106.03 87.5801C102.183 87.6401 98.9329 89.0001 96.2796 91.6601C96.2397 91.703 96.1865 91.7312 96.1286 91.7401C96.0708 91.749 96.0116 91.7381 95.9607 91.7092C95.9097 91.6802 95.8701 91.635 95.8481 91.5807C95.8261 91.5264 95.8231 91.4663 95.8396 91.4101C97.6396 85.0168 101.886 81.4068 108.58 80.5801C125.12 78.5501 138.6 89.8001 155.01 94.9401C159.37 96.3134 163.796 97.4001 168.29 98.2001C168.343 98.2143 168.39 98.2467 168.423 98.2918C168.456 98.3369 168.471 98.3919 168.468 98.4474C168.464 98.5029 168.442 98.5555 168.404 98.5961C168.366 98.6367 168.315 98.6628 168.26 98.6701C157.913 99.1101 147.72 98.1634 137.68 95.8301C124.73 92.8101 112.32 87.8501 104.1 99.9601C103.893 100.267 103.756 100.237 103.69 99.8701C102.83 95.1301 104.6 91.9501 106.35 88.0601C106.496 87.7334 106.39 87.5734 106.03 87.5801ZM105.94 94.9701C114.89 87.8801 124.01 90.9901 135.11 93.5501C137.06 94.0001 138.38 94.7401 140.17 93.1701C140.246 93.1026 140.302 93.0153 140.332 92.9178C140.361 92.8204 140.363 92.7166 140.337 92.6181C140.311 92.5196 140.258 92.4302 140.185 92.36C140.111 92.2897 140.019 92.2413 139.92 92.2201C128.73 89.7801 113.75 84.3901 105.18 95.0401C105.149 95.0764 105.128 95.1201 105.12 95.1669C105.112 95.2136 105.116 95.2618 105.132 95.3064C105.148 95.351 105.176 95.3906 105.213 95.4211C105.249 95.4516 105.293 95.4719 105.34 95.4801C105.586 95.5334 105.723 95.4768 105.75 95.3101C105.768 95.1752 105.836 95.0536 105.94 94.9701Z" fill="#E2185B"/>
<path d="M105.75 95.31C105.723 95.4767 105.586 95.5334 105.34 95.48C105.293 95.4719 105.249 95.4515 105.213 95.421C105.176 95.3905 105.149 95.351 105.132 95.3063C105.116 95.2617 105.112 95.2136 105.12 95.1668C105.129 95.1201 105.149 95.0764 105.18 95.04C113.75 84.39 128.73 89.78 139.92 92.22C140.019 92.2412 140.111 92.2896 140.185 92.3599C140.259 92.4302 140.311 92.5196 140.337 92.6181C140.363 92.7166 140.361 92.8203 140.332 92.9178C140.302 93.0152 140.246 93.1026 140.17 93.17C138.38 94.74 137.06 94 135.11 93.55C124.01 90.99 114.89 87.88 105.94 94.97C105.837 95.0536 105.769 95.1751 105.75 95.31Z" fill="#CB1652"/>
<path d="M191.83 146.2C191.157 132.86 190.964 119.64 191.25 106.54L254.37 102.66C254.95 102.627 255.164 102.89 255.01 103.45L246.26 135.81C246.18 136.103 245.994 136.277 245.7 136.33L191.83 146.2Z" fill="#E2185B"/>
<path d="M191.25 106.54C190.963 119.64 191.157 132.86 191.83 146.2L160.25 151.96L160.24 109.32C160.241 109.184 160.192 109.053 160.102 108.95C160.012 108.847 159.887 108.779 159.75 108.76L158 108.54L191.25 106.54Z" fill="#CB1652"/>
<path d="M158 108.54L159.75 108.76C159.886 108.779 160.011 108.847 160.102 108.95C160.192 109.053 160.241 109.184 160.24 109.32L160.25 151.96L125.3 158.72C124.94 158.787 124.716 158.647 124.63 158.3L112.62 111.72C112.506 111.293 112.67 111.067 113.11 111.04L158 108.54Z" fill="#E2185B"/>
<path d="M230.51 178.36L228.28 178.24C227.94 178.22 227.77 178.04 227.77 177.7L227.75 148.04L257.89 143.47C258.263 143.417 258.417 143.573 258.35 143.94L252.29 177.54C252.269 177.651 252.211 177.751 252.126 177.823C252.04 177.896 251.932 177.937 251.82 177.94L230.51 178.36Z" fill="#07A69F"/>
<path d="M227.75 148.04L227.77 177.7C227.77 178.04 227.94 178.22 228.28 178.24L230.51 178.36L195.24 178.94L196.31 178.68C196.677 178.593 196.86 178.36 196.86 177.98L196.78 152.75L227.75 148.04Z" fill="#06958F"/>
<path d="M196.78 152.75L196.86 177.98C196.86 178.36 196.677 178.593 196.31 178.68L195.24 178.94L145.36 179.56C144.614 179.573 144.137 179.22 143.93 178.5L139.15 161.97C139.064 161.683 139.17 161.517 139.47 161.47L196.78 152.75Z" fill="#07A69F"/>
<path d="M150.5 184.54L150.3 205.32L131.03 204.46C130.869 204.454 130.714 204.396 130.59 204.295C130.465 204.194 130.377 204.055 130.34 203.9L125.46 185.26C125.34 184.787 125.524 184.55 126.01 184.55L150.5 184.54Z" fill="#71B31B"/>
<path d="M150.5 184.54L181.72 184.52C181.3 192.087 181.396 199.547 182.01 206.9L150.3 205.32L150.5 184.54Z" fill="#65A118"/>
<path d="M181.72 184.52H230.32C230.647 184.52 230.75 184.673 230.63 184.98L221.26 208.27C221.19 208.445 221.067 208.594 220.909 208.696C220.752 208.799 220.567 208.849 220.38 208.84L182.01 206.9C181.397 199.547 181.3 192.087 181.72 184.52Z" fill="#71B31B"/>
<path d="M201.53 233.51C203.038 233.51 204.26 232.288 204.26 230.78C204.26 229.272 203.038 228.05 201.53 228.05C200.022 228.05 198.8 229.272 198.8 230.78C198.8 232.288 200.022 233.51 201.53 233.51Z" fill="#535353"/>
<path d="M125.24 238.41C125.247 238.47 125.276 238.526 125.32 238.567C125.365 238.608 125.422 238.633 125.482 238.636C125.543 238.64 125.603 238.622 125.651 238.586C125.7 238.55 125.735 238.499 125.75 238.44L127.79 230.8C127.883 230.44 128.073 230.147 128.36 229.92C131.273 227.58 134.366 227.48 137.64 229.62C137.953 229.82 138.156 230.103 138.25 230.47C140.29 238.303 142.206 246.143 144 253.99C145.03 258.51 140.05 258.63 139.11 255.08C137.21 247.927 135.21 240.807 133.11 233.72C132.963 233.227 132.816 233.227 132.67 233.72C131.296 238.307 130.04 242.907 128.9 247.52C128.18 250.46 128.8 252.88 129.39 255.76C129.432 255.968 129.426 256.183 129.372 256.389C129.317 256.594 129.216 256.784 129.077 256.943C128.937 257.102 128.762 257.226 128.567 257.305C128.371 257.385 128.16 257.417 127.95 257.4L125.66 257.23C125.186 257.19 124.883 256.943 124.75 256.49L118.28 233.34C118.269 233.293 118.243 233.252 118.206 233.222C118.169 233.192 118.122 233.176 118.075 233.176C118.027 233.176 117.981 233.192 117.943 233.222C117.906 233.252 117.88 233.293 117.87 233.34L111.78 256.62C111.736 256.792 111.639 256.945 111.502 257.058C111.365 257.172 111.197 257.239 111.02 257.25L108.62 257.38C108.377 257.392 108.135 257.348 107.912 257.251C107.69 257.154 107.493 257.007 107.337 256.821C107.181 256.635 107.07 256.415 107.013 256.179C106.956 255.943 106.955 255.697 107.01 255.46C108.99 246.907 111.003 238.673 113.05 230.76C113.83 227.75 119.65 227.69 121.69 228.96C124.34 230.6 124.75 235.49 125.24 238.41Z" fill="#535353"/>
<path d="M193.21 234.94C176.24 226.63 177.11 255.38 189.74 251.99C194.1 250.82 191.89 244.83 188.54 243.82C188.382 243.772 188.242 243.678 188.137 243.551C188.031 243.423 187.966 243.268 187.949 243.103C187.932 242.939 187.964 242.773 188.041 242.626C188.117 242.48 188.235 242.36 188.38 242.28C200.38 235.81 198.93 263.09 183.98 256.45C174.66 252.31 174.5 238.97 179.99 231.72C183.31 227.32 189.68 227.56 195.05 229.34C195.33 229.433 195.507 229.62 195.58 229.9C196.127 231.907 195.61 233.553 194.03 234.84C193.777 235.047 193.504 235.08 193.21 234.94Z" fill="#535353"/>
<path d="M211.03 239.41C208.3 228.8 219.22 226.98 226.52 228.71C226.67 228.743 226.808 228.818 226.918 228.926C227.027 229.034 227.104 229.17 227.14 229.32C227.607 231.2 227.227 232.823 226 234.19C225.74 234.483 225.433 234.54 225.08 234.36C219.78 231.66 215.86 232.68 216.84 239.64C216.887 239.953 217.067 240.083 217.38 240.03C219.493 239.683 220.72 240.46 221.06 242.36C221.105 242.631 221.044 242.913 220.89 243.15C220.13 244.297 219.117 244.667 217.85 244.26C217.724 244.219 217.59 244.208 217.459 244.229C217.328 244.25 217.203 244.301 217.096 244.379C216.989 244.457 216.901 244.56 216.841 244.678C216.781 244.796 216.75 244.927 216.75 245.06V255.86C216.75 256.059 216.699 256.254 216.603 256.427C216.507 256.601 216.368 256.746 216.2 256.85C214.94 257.657 213.643 257.67 212.31 256.89C211.997 256.71 211.833 256.44 211.82 256.08L211.46 245.15C211.454 244.996 211.395 244.848 211.294 244.73C211.192 244.612 211.054 244.531 210.9 244.5L209.33 244.21C208.95 244.137 208.657 243.937 208.45 243.61C207.69 242.363 207.777 241.157 208.71 239.99C208.79 239.892 208.897 239.819 209.018 239.78C209.138 239.741 209.268 239.737 209.39 239.77L210.41 240.03C210.496 240.052 210.586 240.051 210.671 240.027C210.756 240.004 210.834 239.959 210.896 239.896C210.959 239.834 211.004 239.756 211.028 239.671C211.051 239.585 211.052 239.496 211.03 239.41Z" fill="#535353"/>
<path d="M241.04 244.3C240.84 247.36 240.19 253.22 245.06 253.16C245.36 253.156 245.656 253.226 245.922 253.364C246.187 253.503 246.415 253.705 246.584 253.954C246.753 254.202 246.859 254.488 246.891 254.788C246.924 255.087 246.882 255.39 246.77 255.67C246.19 257.13 245.08 257.59 243.52 257.37C236.04 256.3 236.36 250.62 235.56 244.68C235.507 244.307 235.297 244.163 234.93 244.25C232.81 244.77 231.39 246.53 229.95 243.54C229.457 242.527 229.373 241.6 229.7 240.76C229.84 240.413 230.083 240.167 230.43 240.02C231.817 239.44 233.247 239.06 234.72 238.88C234.86 238.865 234.988 238.796 235.078 238.687C235.167 238.579 235.211 238.44 235.2 238.3L234.54 230.72C234.507 230.333 234.62 230 234.88 229.72C236.127 228.353 237.753 227.907 239.76 228.38C240.32 228.513 240.613 228.867 240.64 229.44L241.13 238.71C241.136 238.854 241.192 238.99 241.289 239.097C241.386 239.203 241.518 239.271 241.66 239.29L247.56 240.08C247.936 240.13 248.289 240.291 248.574 240.544C248.859 240.797 249.063 241.13 249.16 241.5C249.48 242.687 249.177 243.643 248.25 244.37C248.125 244.467 247.976 244.53 247.818 244.553C247.661 244.576 247.499 244.557 247.35 244.5C245.477 243.767 243.527 243.533 241.5 243.8C241.213 243.84 241.06 244.007 241.04 244.3Z" fill="#535353"/>
<path d="M203.94 235.21C204.283 235.191 204.62 235.309 204.877 235.537C205.134 235.766 205.289 236.087 205.31 236.43L205.77 244.6C205.957 247.95 205.981 251.172 205.837 253.557C205.693 255.942 205.392 257.296 205 257.32L202.18 257.48C201.788 257.492 201.339 256.176 200.93 253.822C200.522 251.467 200.187 248.266 200 244.92L199.54 236.76C199.521 236.417 199.639 236.08 199.867 235.823C200.096 235.566 200.417 235.411 200.76 235.39L203.94 235.21Z" fill="#535353"/>
<path d="M152.06 252.43C152.078 252.596 152.134 252.755 152.225 252.895C152.315 253.035 152.437 253.152 152.581 253.237C152.725 253.321 152.887 253.371 153.053 253.382C153.219 253.393 153.386 253.365 153.54 253.3C158.75 251.08 159.87 247 158.88 241.61C158.19 237.87 158.36 235.9 162.71 235.77C163.836 235.737 164.45 236.283 164.55 237.41C165.03 242.923 165.24 248.617 165.18 254.49C165.126 260.483 162.223 263.99 156.47 265.01C153.12 265.6 152.53 260.97 155.23 260.48C159.196 259.767 160.85 257.577 160.19 253.91C160.096 253.403 159.856 253.317 159.47 253.65C156.33 256.36 151.01 258.62 148.1 254.96C145.38 251.56 146.51 241.15 146.89 236.91C146.923 236.55 147.11 236.31 147.45 236.19C148.77 235.697 149.956 235.83 151.01 236.59C151.149 236.692 151.261 236.827 151.338 236.981C151.415 237.136 151.453 237.307 151.45 237.48C151.323 242.473 151.526 247.457 152.06 252.43Z" fill="#535353"/>
</svg>
