<svg xmlns="http://www.w3.org/2000/svg" version="1.1" xmlns:xlink="http://www.w3.org/1999/xlink" xmlns:svgjs="http://svgjs.com/svgjs" width="512" height="512" x="0" y="0" viewBox="0 0 66 66" style="enable-background:new 0 0 512 512" xml:space="preserve" class=""><g><path d="M15.09 26.08H9.66c-1.54 0-2.8 1.26-2.8 2.8v5.42c0 1.54 1.26 2.8 2.8 2.8h5.43c1.54 0 2.8-1.26 2.8-2.8v-5.42c0-1.54-1.26-2.8-2.8-2.8zm.93 8.23c0 .51-.42.93-.93.93H9.66c-.51 0-.93-.42-.93-.93v-5.42c0-.51.42-.93.93-.93h5.43c.51 0 .93.42.93.93zM29.47 26.08h-5.43c-1.54 0-2.8 1.26-2.8 2.8v5.42c0 1.54 1.26 2.8 2.8 2.8h5.43c1.54 0 2.8-1.26 2.8-2.8v-5.42c0-1.54-1.25-2.8-2.8-2.8zm.94 8.23c0 .51-.42.93-.93.93h-5.43c-.51 0-.93-.42-.93-.93v-5.42c0-.51.42-.93.93-.93h5.43c.51 0 .93.42.93.93zM15.09 39.71H9.66c-1.54 0-2.8 1.26-2.8 2.8v5.43c0 1.54 1.26 2.8 2.8 2.8h5.43c1.54 0 2.8-1.26 2.8-2.8v-5.43c0-1.54-1.26-2.8-2.8-2.8zm.93 8.23c0 .51-.42.93-.93.93H9.66c-.51 0-.93-.42-.93-.93v-5.43c0-.51.42-.93.93-.93h5.43c.51 0 .93.42.93.93zM29.47 39.71h-5.43c-1.54 0-2.8 1.26-2.8 2.8v5.43c0 1.54 1.26 2.8 2.8 2.8h5.43c1.54 0 2.8-1.26 2.8-2.8v-5.43c0-1.54-1.25-2.8-2.8-2.8zm.94 8.23c0 .51-.42.93-.93.93h-5.43c-.51 0-.93-.42-.93-.93v-5.43c0-.51.42-.93.93-.93h5.43c.51 0 .93.42.93.93z" fill="#CB1652" data-original="#000000" opacity="1" class=""></path><path d="M64.1 53.46c0-.11-.02-.21-.06-.32-.01-.03-.02-.05-.04-.08s-.03-.07-.05-.1l-1.96-3.03A10.85 10.85 0 0 1 60.24 44v-4.4c0-4.3-2.86-7.94-6.77-9.13.38-.55.61-1.21.61-1.93 0-1.54-1.04-2.83-2.45-3.24v-8.14c0-4.12-3.35-7.47-7.47-7.47h-.21c-.27-3.96-2.24-6.95-4.71-6.95s-4.44 2.98-4.71 6.95h-3.06c-.27-3.96-2.24-6.95-4.71-6.95s-4.44 2.98-4.71 6.95h-3.06c-.27-3.96-2.24-6.95-4.71-6.95S9.85 5.72 9.57 9.68h-.21c-4.12 0-7.47 3.35-7.47 7.47V50.1c0 4.12 3.35 7.47 7.47 7.47h28.41c.51.73 1.35 1.22 2.3 1.22h5.28c.44 2.54 2.66 4.48 5.33 4.48s4.89-1.94 5.33-4.48h5.28c1.54 0 2.8-1.26 2.8-2.8v-2.5c.02-.02.01-.02.01-.03zM58.37 39.6v4.41c0 2.47.71 4.87 2.05 6.94l1.03 1.59H39.93l1.03-1.59c1.34-2.07 2.05-4.47 2.05-6.94V39.6c0-4.23 3.44-7.68 7.68-7.68s7.68 3.45 7.68 7.68zm-13.58-7.49a9.545 9.545 0 0 0-2.58 3.13h-3.78c-.51 0-.93-.42-.93-.93v-5.42c0-.51.42-.93.93-.93h5.43c.51 0 .93.42.93.93zm7.42-3.58a1.52 1.52 0 1 1-3.039.001 1.52 1.52 0 0 1 3.039-.001zM39.24 4.6c1.24 0 2.6 2.05 2.84 5.08H36.4c.24-3.03 1.6-5.08 2.84-5.08zm-12.48 0c1.24 0 2.6 2.05 2.84 5.08h-5.67c.23-3.03 1.59-5.08 2.83-5.08zm-12.48 0c1.24 0 2.6 2.05 2.84 5.08h-5.67c.24-3.03 1.6-5.08 2.83-5.08zM3.76 17.15c0-3.09 2.51-5.6 5.6-5.6h7.76c-.24 3.03-1.6 5.08-2.84 5.08-.52 0-.93.42-.93.93 0 .52.42.93.93.93 2.47 0 4.44-2.98 4.71-6.95h10.6c-.24 3.03-1.6 5.08-2.84 5.08-.52 0-.93.42-.93.93 0 .52.42.93.93.93 2.47 0 4.44-2.98 4.71-6.95h10.6c-.24 3.03-1.6 5.08-2.84 5.08-.52 0-.93.42-.93.93 0 .52.42.93.93.93 2.47 0 4.44-2.98 4.71-6.95h.21c3.09 0 5.6 2.51 5.6 5.6v3.77h-46v-3.74zm0 32.95V22.8h46v2.5c-1.41.41-2.45 1.7-2.45 3.24 0 .72.23 1.39.61 1.93-.44.13-.85.3-1.26.49v-2.08c0-1.54-1.26-2.8-2.8-2.8h-5.43c-1.54 0-2.8 1.26-2.8 2.8v5.42c0 1.54 1.26 2.8 2.8 2.8h3.06c-.22.8-.34 1.63-.34 2.49V44c0 2.11-.61 4.16-1.75 5.93l-1.96 3.03c-.02.03-.03.07-.05.1-.01.03-.03.05-.04.08-.04.1-.06.21-.06.32v2.23H9.36c-3.09.01-5.6-2.5-5.6-5.59zm46.93 11.3c-1.63 0-3.02-1.11-3.43-2.62h6.85a3.534 3.534 0 0 1-3.42 2.62zm11.55-5.42c0 .51-.42.93-.93.93H40.08c-.51 0-.93-.42-.93-.93v-1.57h23.09z" fill="#CB1652" data-original="#000000" opacity="1" class=""></path></g></svg>